Coordinates
version=1
nRows=17
nColumns=40
inDegrees=yes

Units are S.I. units (second, meters, Newtons, ...)
If the header above contains a line with 'inDegrees', this indicates whether rotational values are in degrees (yes) or radians (no).

endheader
time	pelvis_tilt	pelvis_list	pelvis_rotation	pelvis_tx	pelvis_ty	pelvis_tz	hip_flexion_r	hip_adduction_r	hip_rotation_r	knee_angle_r	knee_angle_r_beta	ankle_angle_r	subtalar_angle_r	mtp_angle_r	hip_flexion_l	hip_adduction_l	hip_rotation_l	knee_angle_l	knee_angle_l_beta	ankle_angle_l	subtalar_angle_l	mtp_angle_l	lumbar_extension	lumbar_bending	lumbar_rotation	arm_flex_r	arm_add_r	arm_rot_r	elbow_flex_r	pro_sup_r	wrist_flex_r	wrist_dev_r	arm_flex_l	arm_add_l	arm_rot_l	elbow_flex_l	pro_sup_l	wrist_flex_l	wrist_dev_l
      2.27500000	    -17.17840555	     -3.59027756	      0.33136337	     -0.35882395	      0.86406505	     -0.73538944	     55.40567660	      7.84753326	     -3.10925065	     62.92382876	      1.09822799	     20.29827795	      0.00000000	      0.00000000	     22.35886658	     -3.71275745	      6.58888957	     89.38273846	      1.56002308	     -5.97457964	      0.00000000	      0.00000000	    -19.51368706	      6.88222865	      3.77600058	     89.90073266	    -13.63915818	     12.92874391	     53.26721858	     87.10728736	      0.00000000	      0.00000000	     89.92934366	     -6.34610493	     10.66596105	     53.05525681	     85.37003392	      0.00000000	      0.00000000
      2.28000000	    -17.26270192	     -3.63650869	      0.33791380	     -0.35915258	      0.86310200	     -0.73534111	     55.62522193	      7.91374354	     -3.07834342	     63.10978627	      1.10147356	     20.37771332	      0.00000000	      0.00000000	     22.44243029	     -3.74407254	      6.60225902	     89.44829137	      1.56116719	     -5.99097683	      0.00000000	      0.00000000	    -19.49877802	      6.90270858	      3.76934194	     89.90211302	    -13.64355163	     12.94356147	     53.34581635	     86.94716319	      0.00000000	      0.00000000	     89.92940042	     -6.35597297	     10.62395425	     53.12470842	     85.73894580	      0.00000000	      0.00000000
      2.28500000	    -17.33895630	     -3.69035376	      0.38317228	     -0.35940172	      0.86211716	     -0.73535580	     55.84061222	      7.93779133	     -3.10208324	     63.31347455	      1.10502859	     20.43679876	      0.00000000	      0.00000000	     22.51937761	     -3.76163219	      6.64808963	     89.52771036	      1.56255332	     -5.98135989	      0.00000000	      0.00000000	    -19.46501119	      6.94574771	      3.74540323	     89.90243362	    -13.62859297	     12.87481228	     53.35987546	     87.12436061	      0.00000000	      0.00000000	     89.92977510	     -6.30665907	     10.61420682	     53.11482225	     85.15949826	      0.00000000	      0.00000000
      2.29000000	    -17.36013383	     -3.77189917	      0.42918089	     -0.35969465	      0.86128270	     -0.73540483	     55.98498026	      7.98363385	     -3.15126286	     63.49378289	      1.10817557	     20.52330360	      0.00000000	      0.00000000	     22.53263782	     -3.78767968	      6.72586384	     89.57120369	      1.56331242	     -5.97499477	      0.00000000	      0.00000000	    -19.51694711	      7.01742585	      3.79268210	     89.90280927	    -13.72134716	     12.85684828	     53.48655462	     86.96592202	      0.00000000	      0.00000000	     89.93030252	     -6.21943953	     10.64911619	     53.16505040	     84.60774596	      0.00000000	      0.00000000
      2.29500000	    -17.43377141	     -3.78563354	      0.44052750	     -0.35999603	      0.86034076	     -0.73537217	     56.18087210	      7.99273752	     -3.14309440	     63.66147842	      1.11110241	     20.56308398	      0.00000000	      0.00000000	     22.60506508	     -3.79159405	      6.70528549	     89.63246483	      1.56438163	     -5.99548060	      0.00000000	      0.00000000	    -19.49859410	      7.01220594	      3.72546593	     89.90371156	    -13.62240118	     12.72215155	     53.44543159	     87.28739461	      0.00000000	      0.00000000	     89.93030910	     -6.23370568	     10.52956206	     53.17904367	     84.70178403	      0.00000000	      0.00000000
      2.30000000	    -17.50354590	     -3.83355613	      0.46027149	     -0.36025095	      0.85933133	     -0.73535144	     56.39035965	      8.02143991	     -3.17516608	     63.87671183	      1.11485894	     20.65727498	      0.00000000	      0.00000000	     22.66684144	     -3.82682037	      6.71320661	     89.69072220	      1.56539841	     -6.02692971	      0.00000000	      0.00000000	    -19.48117311	      7.03918914	      3.71651294	     89.90400776	    -13.60307935	     12.67151950	     53.50259104	     86.92307558	      0.00000000	      0.00000000	     89.93062837	     -6.22657691	     10.46364570	     53.21003316	     85.73989913	      0.00000000	      0.00000000
      2.30500000	    -17.57916345	     -3.87923782	      0.46063163	     -0.36052138	      0.85834382	     -0.73525693	     56.59990932	      8.07040257	     -3.18698546	     64.06334613	      1.11811632	     20.70333555	      0.00000000	      0.00000000	     22.73645246	     -3.87210513	      6.70311555	     89.75618412	      1.56654094	     -6.03216384	      0.00000000	      0.00000000	    -19.45759918	      7.05479023	      3.72931164	     89.90486069	    -13.61389053	     12.64869004	     53.53950309	     87.12181527	      0.00000000	      0.00000000	     89.93066563	     -6.18405953	     10.42892981	     53.21050086	     84.98166435	      0.00000000	      0.00000000
      2.31000000	    -17.60641370	     -3.92607715	      0.50886623	     -0.36076463	      0.85749399	     -0.73532360	     56.74561021	      8.06239715	     -3.24647937	     64.25116941	      1.12139445	     20.83212364	      0.00000000	      0.00000000	     22.74471146	     -3.87817108	      6.74258264	     89.78127101	      1.56697879	     -6.09460574	      0.00000000	      0.00000000	    -19.49721160	      7.09472898	      3.71621302	     89.90512201	    -13.61447317	     12.56492700	     53.62644503	     86.87969302	      0.00000000	      0.00000000	     89.93101277	     -6.16433273	     10.37886401	     53.26594644	     85.72350715	      0.00000000	      0.00000000
      2.31500000	    -17.65742127	     -3.99553518	      0.53636435	     -0.36095256	      0.85654466	     -0.73529074	     56.91601333	      8.09064710	     -3.32041248	     64.42818491	      1.12448396	     20.89343937	      0.00000000	      0.00000000	     22.78034168	     -3.92965983	      6.76997743	     89.83812762	      1.56797112	     -6.06633868	      0.00000000	      0.00000000	    -19.49634984	      7.13970201	      3.72988291	     89.90574760	    -13.65709018	     12.56165818	     53.66270010	     87.09222992	      0.00000000	      0.00000000	     89.93127341	     -6.11172474	     10.38727540	     53.25657805	     85.17118545	      0.00000000	      0.00000000
      2.32000000	    -17.70299979	     -4.05337974	      0.54638339	     -0.36118551	      0.85555801	     -0.73525416	     57.09097807	      8.12578678	     -3.37124876	     64.62457074	      1.12791154	     20.97100324	      0.00000000	      0.00000000	     22.80883383	     -3.97966519	      6.76626313	     89.88640487	      1.56881372	     -6.03503935	      0.00000000	      0.00000000	    -19.50313821	      7.17437367	      3.73256916	     89.90651810	    -13.65239140	     12.53289189	     53.72420004	     86.88682712	      0.00000000	      0.00000000	     89.93128081	     -6.10567284	     10.31438976	     53.29320413	     85.75228043	      0.00000000	      0.00000000
      2.32500000	    -17.79837362	     -4.10769336	      0.57161671	     -0.36131916	      0.85458323	     -0.73524836	     57.30446447	      8.13800013	     -3.43491630	     64.80956825	      1.13114035	     21.04139576	      0.00000000	      0.00000000	     22.88453662	     -4.00924748	      6.78538600	     89.92112494	      1.56941970	     -6.02443221	      0.00000000	      0.00000000	    -19.44106335	      7.17044361	      3.86450528	     89.90892500	    -13.70878443	     12.73853658	     53.80377160	     87.26731042	      0.00000000	      0.00000000	     89.93171678	     -5.83909443	     10.33476016	     53.22120196	     85.20589675	      0.00000000	      0.00000000
      2.33000000	    -17.84964911	     -4.15799740	      0.58999467	     -0.36144292	      0.85358765	     -0.73524571	     57.47590152	      8.15288232	     -3.49138036	     65.01214033	      1.13467590	     21.14546343	      0.00000000	      0.00000000	     22.91037639	     -4.03455410	      6.80144731	     89.95813354	      1.57006562	     -6.00204470	      0.00000000	      0.00000000	    -19.43140961	      7.20701227	      3.85416633	     89.90916775	    -13.69559206	     12.69653513	     53.82741111	     87.12150133	      0.00000000	      0.00000000	     89.93162033	     -5.84329743	     10.25737305	     53.21564152	     85.76991031	      0.00000000	      0.00000000
      2.33500000	    -17.90334365	     -4.20627922	      0.58875838	     -0.36163494	      0.85261758	     -0.73520164	     57.65359400	      8.18372042	     -3.53820252	     65.20271547	      1.13800207	     21.23214282	      0.00000000	      0.00000000	     22.94154108	     -4.06719830	      6.79286448	     89.98457028	      1.57052703	     -6.05898667	      0.00000000	      0.00000000	    -19.42882358	      7.23331223	      3.87412768	     89.90977648	    -13.67575256	     12.63504568	     53.85173904	     87.16179744	      0.00000000	      0.00000000	     89.93182142	     -5.82982046	     10.26374485	     53.22473753	     85.70137785	      0.00000000	      0.00000000
      2.34000000	    -17.93709125	     -4.29049506	      0.61820988	     -0.36193585	      0.85164895	     -0.73519614	     57.82577560	      8.20362255	     -3.64127796	     65.40324106	      1.14150190	     21.25070753	      0.00000000	      0.00000000	     22.97651786	     -4.15298819	      6.81825642	     90.05198090	      1.57170356	     -6.07021859	      0.00000000	      0.00000000	    -19.45274655	      7.33376602	      3.74155905	     89.90851897	    -13.60509814	     12.23799397	     53.82995138	     87.38145813	      0.00000000	      0.00000000	     89.93154420	     -5.97407734	     10.34345266	     53.32283208	     83.86440239	      0.00000000	      0.00000000
      2.34500000	    -17.98739109	     -4.32584771	      0.61572635	     -0.36213723	      0.85068469	     -0.73517711	     57.98707125	      8.22238323	     -3.68976491	     65.57568567	      1.14451162	     21.38577476	      0.00000000	      0.00000000	     22.99791874	     -4.16711122	      6.80570726	     90.07473826	      1.57210076	     -6.08421419	      0.00000000	      0.00000000	    -19.45607790	      7.35143027	      3.78206939	     89.90854881	    -13.62782793	     12.24215455	     53.90506547	     87.02617884	      0.00000000	      0.00000000	     89.93197315	     -5.94658772	     10.20589934	     53.30482407	     85.54577961	      0.00000000	      0.00000000
      2.35000000	    -18.02740364	     -4.38672996	      0.61439175	     -0.36227003	      0.84968625	     -0.73513537	     58.15592105	      8.25731566	     -3.74958507	     65.78568830	      1.14817686	     21.45801731	      0.00000000	      0.00000000	     23.00857526	     -4.22742585	      6.78942830	     90.10750575	      1.57267266	     -6.07134075	      0.00000000	      0.00000000	    -19.46186274	      7.38715939	      3.80603959	     89.90906553	    -13.64627246	     12.21094786	     53.97860257	     86.95347250	      0.00000000	      0.00000000	     89.93205591	     -5.91957049	     10.19721513	     53.30482713	     85.55721088	      0.00000000	      0.00000000
      2.35500000	    -18.09721430	     -4.42022442	      0.60157591	     -0.36250833	      0.84865596	     -0.73511214	     58.35571282	      8.28525738	     -3.78545866	     65.97944395	      1.15155854	     21.53933298	      0.00000000	      0.00000000	     23.05272784	     -4.23921656	      6.77982487	     90.14211483	      1.57327670	     -6.07962127	      0.00000000	      0.00000000	    -19.43527956	      7.39176336	      3.83845329	     89.90945418	    -13.67130945	     12.18697190	     54.02838922	     86.83654681	      0.00000000	      0.00000000	     89.93226932	     -5.88011927	     10.15956150	     53.28879885	     85.73807057	      0.00000000	      0.00000000
